/* XPM */
static char * sdl_xpm[] = {
"64 64 390 2",
"  	c None",
". 	c #FFFFFF",
"+ 	c #FDFDFD",
"@ 	c #FCFCFC",
"# 	c #F9FAFA",
"$ 	c #E3E6EA",
"% 	c #D7DBE0",
"& 	c #D8DCE1",
"* 	c #E4E7EA",
"= 	c #F6F7F8",
"- 	c #FAFBFB",
"; 	c #F4F5F5",
"> 	c #F9F9FA",
", 	c #CFD3DA",
"' 	c #69788A",
") 	c #2E445D",
"! 	c #14304B",
"~ 	c #082A46",
"{ 	c #0A2B47",
"] 	c #15314B",
"^ 	c #2A405A",
"/ 	c #4E6176",
"( 	c #8D99A6",
"_ 	c #DCDFE4",
": 	c #95A0AC",
"< 	c #384D65",
"[ 	c #43576D",
"} 	c #42576D",
"| 	c #485B71",
"1 	c #58697D",
"2 	c #728091",
"3 	c #A6B0BA",
"4 	c #EBECEF",
"5 	c #BDC3CC",
"6 	c #3A4F66",
"7 	c #41566D",
"8 	c #D4D7DB",
"9 	c #F0F1F1",
"0 	c #7D8A99",
"a 	c #012642",
"b 	c #001837",
"c 	c #00203D",
"d 	c #002440",
"e 	c #002340",
"f 	c #00213E",
"g 	c #001C3A",
"h 	c #001333",
"i 	c #30475F",
"j 	c #738292",
"k 	c #000C30",
"l 	c #001E3B",
"m 	c #001D3B",
"n 	c #001A38",
"o 	c #001A39",
"p 	c #1D3750",
"q 	c #8693A1",
"r 	c #FBFBFC",
"s 	c #A5AFB9",
"t 	c #001132",
"u 	c #001D3A",
"v 	c #CBD0D6",
"w 	c #E9EAEB",
"x 	c #CACDD2",
"y 	c #778595",
"z 	c #001534",
"A 	c #032844",
"B 	c #001C39",
"C 	c #002541",
"D 	c #2A425A",
"E 	c #798797",
"F 	c #022743",
"G 	c #001F3C",
"H 	c #00223E",
"I 	c #001635",
"J 	c #4D6176",
"K 	c #F1F2F4",
"L 	c #A9B2BC",
"M 	c #002542",
"N 	c #CDD2D8",
"O 	c #FDFDFE",
"P 	c #C3C7CE",
"Q 	c #DADCDD",
"R 	c #CBCFD6",
"S 	c #002441",
"T 	c #2B435B",
"U 	c #9AA4B0",
"V 	c #C8CDD5",
"W 	c #CCD0D7",
"X 	c #B3BBC4",
"Y 	c #798796",
"Z 	c #29405A",
"` 	c #284059",
" .	c #11304A",
"..	c #69798B",
"+.	c #6C7C8D",
"@.	c #637385",
"#.	c #3C5168",
"$.	c #001634",
"%.	c #5B6C7F",
"&.	c #FCFDFD",
"*.	c #CFD2D5",
"=.	c #A9AFB6",
"-.	c #83909E",
";.	c #001736",
">.	c #062A45",
",.	c #D5D9DF",
"'.	c #F0F2F4",
").	c #828F9D",
"!.	c #344B63",
"~.	c #FEFEFE",
"{.	c #00223F",
"].	c #233D56",
"^.	c #FDFEFD",
"/.	c #FEFEFF",
"(.	c #B1B9C3",
"_.	c #1E3751",
":.	c #DEE1E6",
"<.	c #7B8794",
"[.	c #D7D9DA",
"}.	c #6D7D8E",
"|.	c #082B46",
"1.	c #D5D9DE",
"2.	c #223C55",
"3.	c #F1F3F4",
"4.	c #CACFD6",
"5.	c #042945",
"6.	c #374D65",
"7.	c #ABB4BE",
"8.	c #FDFDFC",
"9.	c #B5B8B9",
"0.	c #E9E9E9",
"a.	c #7D8B9A",
"b.	c #253E57",
"c.	c #8E9AA7",
"d.	c #F0F1F3",
"e.	c #768494",
"f.	c #6B7A8B",
"g.	c #DBDEE3",
"h.	c #ABB0B7",
"i.	c #9A9FA6",
"j.	c #FEFDFD",
"k.	c #B5BDC7",
"l.	c #012643",
"m.	c #032843",
"n.	c #223B55",
"o.	c #506277",
"p.	c #98A3AF",
"q.	c #E3E5E9",
"r.	c #B6BDC6",
"s.	c #AEB7C1",
"t.	c #B7BFC8",
"u.	c #627285",
"v.	c #4E5C6D",
"w.	c #E0E0E0",
"x.	c #485C71",
"y.	c #002642",
"z.	c #84909F",
"A.	c #FBFBFB",
"B.	c #D0D5DB",
"C.	c #022642",
"D.	c #97A2AE",
"E.	c #BAC0C9",
"F.	c #A5A8AC",
"G.	c #ADB0B3",
"H.	c #E9EBEE",
"I.	c #00233F",
"J.	c #657587",
"K.	c #D3D7DD",
"L.	c #042844",
"M.	c #939EAB",
"N.	c #BCBFC0",
"O.	c #92969A",
"P.	c #F0F0F1",
"Q.	c #B1BAC3",
"R.	c #546579",
"S.	c #1C3650",
"T.	c #CDD1D8",
"U.	c #818E9D",
"V.	c #C4CAD1",
"W.	c #A4ADB8",
"X.	c #B9BFC8",
"Y.	c #A8ADB3",
"Z.	c #848A8E",
"`.	c #DEDFE0",
" +	c #EBEDEF",
".+	c #C4C9D1",
"++	c #929DAA",
"@+	c #516479",
"#+	c #84919F",
"$+	c #8491A0",
"%+	c #8F9AA7",
"&+	c #012743",
"*+	c #B4BCC6",
"=+	c #001737",
"-+	c #5E6A75",
";+	c #D6D8D8",
">+	c #E8EAED",
",+	c #707E8F",
"'+	c #F6F6F8",
")+	c #2C435C",
"!+	c #00213D",
"~+	c #ADB6C0",
"{+	c #D2D6DC",
"]+	c #4A596B",
"^+	c #6A747C",
"/+	c #D1D3D4",
"(+	c #586A7D",
"_+	c #6D7A8B",
":+	c #EDEFF1",
"<+	c #FAFAFB",
"[+	c #1B354F",
"}+	c #808D9B",
"|+	c #FBFCFC",
"1+	c #F4F5F7",
"2+	c #5F6F82",
"3+	c #979B9E",
"4+	c #767E82",
"5+	c #D7D9DB",
"6+	c #54657A",
"7+	c #000A2E",
"8+	c #284058",
"9+	c #8995A3",
"0+	c #F8F8F9",
"a+	c #022643",
"b+	c #C2C8D0",
"c+	c #828F9E",
"d+	c #1D3751",
"e+	c #BBC2CA",
"f+	c #BCC3CB",
"g+	c #95A1AD",
"h+	c #374C64",
"i+	c #314760",
"j+	c #A1ABB6",
"k+	c #C8CED5",
"l+	c #C6CBD2",
"m+	c #DADEE2",
"n+	c #E5E6E6",
"o+	c #727B80",
"p+	c #7A8186",
"q+	c #EAEBEC",
"r+	c #56687C",
"s+	c #2E455E",
"t+	c #465970",
"u+	c #3F546B",
"v+	c #41566C",
"w+	c #788696",
"x+	c #17334D",
"y+	c #D0D4DA",
"z+	c #001735",
"A+	c #58697E",
"B+	c #F7F7F9",
"C+	c #A2ACB7",
"D+	c #78838E",
"E+	c #697277",
"F+	c #8E9598",
"G+	c #506378",
"H+	c #000C2F",
"I+	c #001E3C",
"J+	c #324961",
"K+	c #DDE0E5",
"L+	c #758393",
"M+	c #A8B1BB",
"N+	c #001836",
"O+	c #596A7E",
"P+	c #B0B9C2",
"Q+	c #00092F",
"R+	c #5E6970",
"S+	c #C2C5C7",
"T+	c #647487",
"U+	c #001937",
"V+	c #1F3852",
"W+	c #062945",
"X+	c #273F58",
"Y+	c #A4AEB8",
"Z+	c #5B6C80",
"`+	c #E0E3E7",
" @	c #2B4157",
".@	c #2D4153",
"+@	c #7D8589",
"@@	c #F8F8F8",
"#@	c #F3F4F6",
"$@	c #9FA9B4",
"%@	c #7B8998",
"&@	c #BEC4CC",
"*@	c #EEF0F2",
"=@	c #B3B8BA",
"-@	c #647073",
";@	c #646F73",
">@	c #CED1D3",
",@	c #C0C4C6",
"'@	c #616C71",
")@	c #5C686D",
"!@	c #AAAFB2",
"~@	c #798798",
"{@	c #203A53",
"]@	c #626E75",
"^@	c #616C70",
"/@	c #9BA1A4",
"(@	c #63717F",
"_@	c #1E334A",
":@	c #5F6970",
"<@	c #A2A8AA",
"[@	c #E2E4E5",
"}@	c #949A9E",
"|@	c #72797D",
"1@	c #767D81",
"2@	c #B8BCBE",
"3@	c #F8F9FA",
"4@	c #596B80",
"5@	c #798592",
"6@	c #858B8F",
"7@	c #6E767B",
"8@	c #8C9296",
"9@	c #F4F4F4",
"0@	c #BCC0C3",
"a@	c #273C52",
"b@	c #485664",
"c@	c #8B9093",
"d@	c #BABDC0",
"e@	c #F5F6F6",
"f@	c #F7F7F7",
"g@	c #9DA8B4",
"h@	c #A5AEB8",
"i@	c #C8CACB",
"j@	c #959A9D",
"k@	c #81878B",
"l@	c #969A9D",
"m@	c #BBBEC0",
"n@	c #ECEDEE",
"o@	c #F4F4F5",
"p@	c #E8EAEB",
"q@	c #E2E4E7",
"r@	c #FAFAFA",
"s@	c #EBECED",
"t@	c #D2D4D5",
"u@	c #3C4F63",
"v@	c #445465",
"w@	c #A3A8AB",
"x@	c #C8CBCD",
"y@	c #F1F1F2",
"z@	c #EEEFF0",
"A@	c #ECECED",
"B@	c #E7E8E9",
"C@	c #D4D7DC",
"D@	c #F7F7F8",
"E@	c #F9FAFB",
"F@	c #F5F6F8",
"G@	c #FCFCFD",
"H@	c #F6F6F7",
"I@	c #EDEDEE",
"J@	c #627183",
"K@	c #86909B",
"L@	c #B7B9BB",
"M@	c #A0A4A7",
"N@	c #B3B6B8",
"O@	c #CBCDCE",
"P@	c #E9EAEC",
"Q@	c #E9EAEA",
"R@	c #E4E5E6",
"S@	c #E7E7E8",
"T@	c #B4B9C1",
"U@	c #D1D4D8",
"V@	c #E6E7E8",
"W@	c #9AA4AE",
"X@	c #D2D5D9",
"Y@	c #E4E6E6",
"Z@	c #DFE0E2",
"`@	c #DCDDDE",
" #	c #707D8C",
".#	c #A3A9B1",
"+#	c #C5C7C8",
"@#	c #B8BBBD",
"##	c #B6B9BB",
"$#	c #9CA2A9",
"%#	c #AFB4B9",
"&#	c #CCCED0",
"*#	c #DEDFE1",
"=#	c #F1F2F2",
"-#	c #F9F9F9",
";#	c #F3F3F3",
">#	c #EDEEEE",
",#	c #E8E9E9",
"'#	c #E4E5E5",
")#	c #D3D6D9",
"!#	c #DADBDD",
"~#	c #DBDDDE",
"{#	c #D9DBDC",
"]#	c #D8DADC",
"^#	c #DFE0E1",
"/#	c #EDEEEF",
". . . . . . . . . . . . . . . . . . . . . . . . . . . . . . . . . . . . . . . . . . . . . . . . . . . . . . . . . . . . . . . . ",
". . . . . . . . . . . . . . . . . . . . . . . . . . . . . . . . . . . . . . . . . . . . . . . . . . . . . . . . . . . . . . . . ",
". . . . . . . . . . . . . . . . . . . . . . . . . . . . . . . . . . . . . . . . . . . . . . . . . . . . . . . . . . . . . . . . ",
". . . . . . . . . . . . . . . . . . . . . . . . . . . . . . . . . . . . . . . . . . . . . . . . . . . . . . . . . . . . . . . . ",
". . . . . . . . . . . . . . . . . . . . . . . . . . . . . . . . . . . . . . . . . . . . . . . . . . . . . . . . . . . . . . . . ",
". . . . . . . . . . . . . . . . . . . . . . . . . . . . . . . . . . . . . . . . . . . . . . . . . . . . . . . . . . . . . . . . ",
". . . . . . . . . . . . . . . . . . . . . . . . . . . . . . . . . . . . . . . . . . . . . . . . . . . . . . . . . . . . . . . . ",
". . . . . . . . . . . . . . . . . . . . . . . . . . . . . . . . . . . . . . . . . . . . . . . . . . . . . . . . . . . . . . . . ",
". . . . . . . . . . . . . . . . . . . . . . . . . . . . . . . . . . . . . . . . . . . . . . . . . . . . . . . . . . . . . . . . ",
". . . . . . . . . . . . . . . . . . . . . . . . . . . . . . . . . . . . . . . . . . . . . . . . . . . . . . . . . . . . . . . . ",
". . . . . . . . . . . . . . . . . . . . . . . . . . . . . . . . . . . . . . . . . . . . . . . . . . . . . . . . . . . . . . . . ",
". . . . . . . . . . . . . . . . . . . . . . . . . . . . . . . . . . . . . . . . . . . . . . . . . . . . . . . . . . . . . . . . ",
". . . . . . . . . . . . . . . . . . . . . . . . . . . . . . . . . . . . . . . . . . . . . . . . . . . . . . . . . . . . . . . . ",
". . . . . . . . . . . . . . . . . . . . . . . . . . . . . . . . . . . . . . . . . . . . . . . . . . . . . . . . . . . . . . . . ",
". . . . . . . . . . . . . . . . . . . . . . . . . . . . . . . . . . . . . . . . . . . . . . . . . . . . . . . . . . . . . . . . ",
". . . . . . . . . . . . . . . . . . . . . . . . . . . . . . . . . . . . . . . . . . . . . . . . . . . . + @ . . . . . . . . . . ",
". . . . . . . . . # $ % & * = . . . . . . . . . . . . . . . . . . . . . . . . . . . . . . . . . . . . . . - ; > . . . . . . . . ",
". . . . . . . , ' ) ! ~ { ] ^ / ( _ . : < [ [ [ [ } | 1 2 3 4 . . . . . 5 6 [ 7 } & . . . . . . . . . . . . @ 8 9 . . . . . . . ",
". . . . . + 0 a b c d d e e f g h i . j k l l l l l m g n o p q r . . . s t l g u v . . . . . . . . . . . . . . w x . . . . . . ",
". . . . . y z d A f B e C l n f f D . E n F F a o n o G a F H I J K . . L u F M a N . . . . . . . . . . . . . . O P Q . . . . . ",
". . . . R f S F H T U V W X Y Z h ` . E n F C  ...+.@.#.H f A F $.%.&.. L u F M a N . . . . . . . . . . . . . . . . *.=.. . . . ",
". . . . -.;.F C >.,.. . . . . '.).!.~.E n F {.].^.. . /.(._.c F a b s . L u F M a N . . . . . . . . . . . . . . . . :.<.[.. . . ",
". . . . }.n F C |.1.. . . . . . . * O y n F {.2.3.. . . . 4.5.S F l 6.~.7.u F M a N . . . . . . . . . . . . . . . . . 8.9.0.. . ",
". . . . a.b F F {.b.c.W d.. . . . . . e.n F {.2.3.. . . . . f.o F a e g.X u F M a N . . . . . . . . . . . . . . . . . . h.i.j.. ",
". . . . k.n l.F m.H n C n.o.p.q.. . . e.n F {.2.3.. . . . . r.m F F o s.t.u F M a N . . . . . . . . . . . . . . . . . . u.v.w.. ",
". . . . > x.$.a F F F y.{.g n ! z.A.. e.n F {.2.3.. . . . . B.C.C F b D.E.u F M a N . . . . . . . . . . . . . . . . . . > F.G.~.",
". . . . . H./ B o I.a F F F F {.$.J.. y n F {.2.3.. . . . . K.L.C F b M.E.u F M a N . . . . . . . . . . . . . . . . . . . N.O.P.",
". . . . . . . Q.R.S.H n u y.F F y.u T.U.n F {.2.3.. . . . . V.f a F n W.X.u F M a N . . . . . . . . . . . . . . . . . . @ Y.Z.`.",
". . . . . . . . .  +.+++@+C S F F b #+$+n F {.2.3.. . . . . %+n F &+G T.*+u F M a N . . . . . . . . . . . . . . . . . . U =+-+;+",
". . . . >+. . . . . . . . 3 C M F o ,+).n F {.2.3.. . . . '+)+c F !+].# ~+u F M a N . . . . . . . . . . . . . . . . . . {+]+^+/+",
". . . . (+_+:+. . . . . . <+[+I.F b }+z.n F {.].|+. . . 1+2+g F F I q . L u F M a 1.. . . . . . . . . . . . . . . . . . . 3+4+5+",
". . . . 6+7+8+9+K.0+. . >+e.f l.a+B b+c+n F e d+e+V.f+g+h+B F m.B i+'.. L u F a a j+k+k+k+k+k+l+m+. . . . . . . . . . . n+o+p+q+",
". . . . r+g f n L.s+t+u+d+l F F ;.v+. w+n F F &+{.f G o c F F n x+y+. . L u F F F d e e e e e z+A+. . . . . . . . . B+C+D+E+F++ ",
". . . . G+H+f a C !+l I+I.a H I J+K+. L+;.C M C S S S d H B n #.{+. . . M+n C M M S S S S S S N+O+. . . . . . . . . P+Q+H R+S+. ",
". . . . W T+b.d o b U+b n G V+w+d.. . e.n F F F F F W+! X+/ Y+r . . . . L u F F F F F F F F F B Z+. . . . . . . . . `+ @.@+@@@. ",
". . . . . . #@4.$@z.%@a.++&@*@. . . . . . . . . . . . . . . . . . . . . . . . . . . . . . . . . . . . . . . . . . . =@-@;@>@. . ",
". . . . . . . . . . . . . . . . . . . . . . . . . . . . . . . . . . . . . . . . . . . . . . . . . . . . . . . . 0+,@'@)@!@. . . ",
". . . . . . . . . . . . . . . . . . . . . . . . . . . . . . . . . . . . . . . . . . . . . . . . . . . . . . . ~@{@]@^@/@+ . . . ",
". . . . . . . . . . . . . . . . . . . . . . . . . . . . . . . . . . . . . . . . . . . . . . . . . . . . . . r (@_@:@<@A.. . . . ",
". . . . . . . . . . . . . . . . . . . . . . . . . . . . . . . . . . . . . . . . . . . . . . . . . . . . . [@}@|@1@2@~.. . . . . ",
". . . . . . . . . . . . . . . . . . . . . . . . . . . . . . . . . . . . . . . . . . . . . . . . . . 3@4@5@6@7@8@[.. . . . . . . ",
". . . . . . . . . . . . + |+~.. . . . . . . . . . . . . . . . . . . . . . . . . . . . . . . . . . 9@0@a@b@c@d@e@. . . . . . . . ",
". . . . . . . . . . . . . @ @@f@A.. . . . . . . . . . . . . . . . . . . . . . . . . . . . . g@h@i@j@k@l@m@n@. . . . . . . . . . ",
". . . . . . . . . . . . . . . A.o@p@q@r@. . . . . . . . . . . . . . . . . . . . . . . @ s@t@u@v@l@w@x@y@. . . . . . . . . . . . ",
". . . . . . . . . . . . . . . . . @ o@z@A@B@C@D@A.. E@. . . . . . . . . F@G@+ H@I@J@K@L@M@M@N@O@B@+ . . . . . . . . . . . . . . ",
". . . . . . . . . . . . . . . . . . . . ~.H@P@Q@R@S@T@U@V@B@Q@W@X@Y@Z@`@ #.#+#@###$#%#&#*#=#. . . . . . . . . . . . . . . . . . ",
". . . . . . . . . . . . . . . . . . . . . . . . . @ -#;#>#,#'#)#!#~#{#Q ]#^#V@/#; . . . . . . . . . . . . . . . . . . . . . . . ",
". . . . . . . . . . . . . . . . . . . . . . . . . . . . . . . . . . . . . . . . . . . . . . . . . . . . . . . . . . . . . . . . ",
". . . . . . . . . . . . . . . . . . . . . . . . . . . . . . . . . . . . . . . . . . . . . . . . . . . . . . . . . . . . . . . . ",
". . . . . . . . . . . . . . . . . . . . . . . . . . . . . . . . . . . . . . . . . . . . . . . . . . . . . . . . . . . . . . . . ",
". . . . . . . . . . . . . . . . . . . . . . . . . . . . . . . . . . . . . . . . . . . . . . . . . . . . . . . . . . . . . . . . ",
". . . . . . . . . . . . . . . . . . . . . . . . . . . . . . . . . . . . . . . . . . . . . . . . . . . . . . . . . . . . . . . . ",
". . . . . . . . . . . . . . . . . . . . . . . . . . . . . . . . . . . . . . . . . . . . . . . . . . . . . . . . . . . . . . . . ",
". . . . . . . . . . . . . . . . . . . . . . . . . . . . . . . . . . . . . . . . . . . . . . . . . . . . . . . . . . . . . . . . ",
". . . . . . . . . . . . . . . . . . . . . . . . . . . . . . . . . . . . . . . . . . . . . . . . . . . . . . . . . . . . . . . . ",
". . . . . . . . . . . . . . . . . . . . . . . . . . . . . . . . . . . . . . . . . . . . . . . . . . . . . . . . . . . . . . . . ",
". . . . . . . . . . . . . . . . . . . . . . . . . . . . . . . . . . . . . . . . . . . . . . . . . . . . . . . . . . . . . . . . ",
". . . . . . . . . . . . . . . . . . . . . . . . . . . . . . . . . . . . . . . . . . . . . . . . . . . . . . . . . . . . . . . . ",
". . . . . . . . . . . . . . . . . . . . . . . . . . . . . . . . . . . . . . . . . . . . . . . . . . . . . . . . . . . . . . . . ",
". . . . . . . . . . . . . . . . . . . . . . . . . . . . . . . . . . . . . . . . . . . . . . . . . . . . . . . . . . . . . . . . ",
". . . . . . . . . . . . . . . . . . . . . . . . . . . . . . . . . . . . . . . . . . . . . . . . . . . . . . . . . . . . . . . . ",
". . . . . . . . . . . . . . . . . . . . . . . . . . . . . . . . . . . . . . . . . . . . . . . . . . . . . . . . . . . . . . . . ",
". . . . . . . . . . . . . . . . . . . . . . . . . . . . . . . . . . . . . . . . . . . . . . . . . . . . . . . . . . . . . . . . ",
". . . . . . . . . . . . . . . . . . . . . . . . . . . . . . . . . . . . . . . . . . . . . . . . . . . . . . . . . . . . . . . . "};
